<svg xmlns="http://www.w3.org/2000/svg" xmlns:xlink="http://www.w3.org/1999/xlink" width="1366" zoomAndPan="magnify" viewBox="0 0 1024.5 576" height="768" preserveAspectRatio="xMidYMid meet" version="1.0"><defs><g/><clipPath id="04c1bd8025"><path d="M 225 200 L 382.558594 200 L 382.558594 378.53125 L 225 378.53125 Z M 225 200 " clip-rule="nonzero"/></clipPath></defs><g clip-path="url(#04c1bd8025)"><path fill="#004aad" d="M 370.546875 211.34375 C 363.496094 204.621094 354.042969 200.875 344.300781 200.90625 C 334.238281 200.945312 324.785156 204.882812 317.671875 211.996094 L 304.097656 225.570312 L 290.867188 212.335938 C 276.128906 197.597656 252.128906 197.136719 237.246094 211.734375 C 222.214844 226.472656 222.128906 250.691406 236.980469 265.539062 L 308.839844 337.402344 C 317.042969 345.601562 317.425781 358.957031 309.382812 367.3125 C 301.15625 375.863281 287.496094 375.964844 279.140625 367.609375 L 261.339844 349.808594 C 260.589844 349.058594 260.511719 347.871094 261.15625 347.023438 C 263.789062 343.566406 265.242188 339.175781 264.914062 334.441406 C 264.273438 325.09375 256.632812 317.578125 247.277344 317.089844 C 236.441406 316.527344 227.457031 325.25 227.601562 335.996094 C 227.734375 345.949219 235.847656 354.167969 245.796875 354.417969 C 249.007812 354.496094 252.039062 353.761719 254.707031 352.410156 C 255.515625 352 256.5 352.171875 257.140625 352.8125 L 275.53125 371.207031 C 280.652344 376.328125 287.378906 378.886719 294.105469 378.886719 C 300.832031 378.886719 307.5625 376.324219 312.683594 371.207031 C 322.925781 360.964844 322.925781 344.296875 312.683594 334.054688 L 240.582031 261.945312 C 227.800781 249.167969 227.800781 228.375 240.582031 215.597656 C 253.359375 202.820312 274.152344 202.820312 286.925781 215.597656 L 302.234375 230.902344 C 302.746094 231.417969 303.425781 231.660156 304.097656 231.640625 C 304.773438 231.660156 305.453125 231.417969 305.964844 230.902344 L 320.964844 215.902344 C 327.1875 209.683594 335.585938 206.015625 344.378906 206 C 353.160156 205.984375 361.417969 209.394531 367.621094 215.597656 C 373.820312 221.804688 377.230469 230.046875 377.21875 238.820312 C 377.207031 247.621094 373.539062 256.027344 367.316406 262.253906 L 362.46875 267.101562 C 362.070312 267.5 361.527344 267.726562 360.960938 267.726562 L 346.507812 267.726562 C 345.707031 267.726562 344.96875 267.269531 344.613281 266.554688 L 337.632812 252.59375 C 336.851562 251.027344 334.621094 251.027344 333.839844 252.59375 L 321.84375 276.566406 C 321.0625 278.132812 318.832031 278.132812 318.050781 276.566406 L 313.953125 268.371094 C 313.175781 266.804688 310.945312 266.804688 310.164062 268.371094 L 306.066406 276.5625 C 305.285156 278.128906 303.054688 278.128906 302.273438 276.5625 L 290.285156 252.585938 C 289.503906 251.019531 287.273438 251.019531 286.496094 252.585938 L 279.511719 266.546875 C 279.152344 267.261719 278.417969 267.714844 277.617188 267.714844 L 264.828125 267.714844 C 263.429688 267.714844 262.21875 268.789062 262.175781 270.183594 C 262.132812 271.625 263.289062 272.804688 264.71875 272.804688 L 280.765625 272.804688 C 281.566406 272.804688 282.304688 272.351562 282.660156 271.636719 L 286.496094 263.964844 C 287.273438 262.398438 289.503906 262.398438 290.285156 263.964844 L 302.273438 287.941406 C 303.054688 289.507812 305.285156 289.507812 306.066406 287.941406 L 310.164062 279.75 C 310.945312 278.183594 313.175781 278.183594 313.953125 279.75 L 318.050781 287.945312 C 318.832031 289.511719 321.0625 289.511719 321.84375 287.945312 L 333.832031 263.96875 C 334.613281 262.40625 336.84375 262.402344 337.625 263.96875 L 341.460938 271.640625 C 341.824219 272.355469 342.558594 272.808594 343.359375 272.808594 L 362.886719 272.808594 C 362.886719 272.808594 362.886719 272.808594 362.890625 272.808594 L 362.898438 272.808594 C 363.054688 272.808594 363.207031 272.792969 363.355469 272.765625 C 363.363281 272.765625 363.375 272.761719 363.382812 272.761719 C 363.53125 272.734375 363.679688 272.691406 363.820312 272.636719 C 363.835938 272.632812 363.847656 272.628906 363.859375 272.625 C 364 272.5625 364.136719 272.492188 364.261719 272.410156 C 364.273438 272.402344 364.289062 272.398438 364.300781 272.390625 C 364.4375 272.296875 364.5625 272.195312 364.683594 272.082031 C 364.6875 272.078125 364.6875 272.078125 364.691406 272.070312 L 370.847656 265.914062 C 378.136719 258.628906 382.386719 248.757812 382.308594 238.453125 C 382.222656 228.148438 378.046875 218.492188 370.546875 211.34375 Z M 232.691406 335.742188 C 232.691406 328.25 238.789062 322.15625 246.28125 322.15625 C 253.769531 322.15625 259.867188 328.253906 259.867188 335.742188 C 259.867188 343.238281 253.769531 349.332031 246.28125 349.332031 C 238.789062 349.332031 232.691406 343.238281 232.691406 335.742188 Z M 232.691406 335.742188 " fill-opacity="1" fill-rule="nonzero"/></g><g fill="#1ca4ac" fill-opacity="1"><g transform="translate(319.262904, 341.753597)"><g><path d="M 77.789062 -48.78125 L 78.933594 -48.78125 L 78.933594 -49.28125 L 55.226562 -49.28125 L 41.472656 -12.605469 L 26.214844 -49.28125 L 2.363281 -49.28125 L 2.363281 -48.78125 L 3.511719 -48.78125 C 7.949219 -48.78125 9.742188 -47.632812 10.027344 -42.546875 L 10.101562 -21.203125 C 10.101562 -13.609375 6.230469 -0.5 1.144531 -0.5 L 0 -0.5 L 0 0 L 23.28125 0 L 23.28125 -0.5 L 22.132812 -0.5 C 15.328125 -0.5 10.746094 -13.609375 10.746094 -21.203125 L 10.746094 -46.84375 L 28.4375 -3.652344 L 38.964844 -3.652344 L 55.511719 -47.917969 L 55.511719 -8.667969 C 55.511719 -1.933594 53.863281 -0.5 48.921875 -0.5 L 47.777344 -0.5 L 47.777344 0 L 78.933594 0 L 78.933594 -0.5 L 77.789062 -0.5 C 72.847656 -0.5 71.199219 -1.933594 71.199219 -8.667969 L 71.199219 -40.613281 C 71.199219 -47.347656 72.847656 -48.78125 77.789062 -48.78125 Z M 77.789062 -48.78125 "/></g></g></g><g fill="#1ca4ac" fill-opacity="1"><g transform="translate(400.469822, 341.753597)"><g><path d="M 24.210938 0.285156 C 18.410156 0.285156 17.40625 -4.082031 17.40625 -15.902344 L 39.179688 -15.972656 C 39.179688 -29.726562 34.953125 -34.238281 22.347656 -34.238281 C 11.246094 -34.238281 2.003906 -29.226562 2.003906 -16.402344 C 2.003906 -3.867188 8.882812 1.144531 21.988281 1.144531 C 30.585938 1.144531 35.816406 -2.507812 38.105469 -8.378906 L 37.605469 -8.523438 C 36.101562 -4.371094 31.515625 0.285156 24.210938 0.285156 Z M 22.203125 -33.664062 C 24.785156 -33.664062 25.5 -29.367188 25.5 -16.476562 L 17.40625 -16.476562 L 17.40625 -16.546875 C 17.40625 -29.367188 18.695312 -33.664062 22.203125 -33.664062 Z M 22.203125 -33.664062 "/></g></g></g><g fill="#1ca4ac" fill-opacity="1"><g transform="translate(441.35972, 341.753597)"><g><path d="M 45.984375 -0.5 C 43.765625 -0.5 42.117188 -1.359375 42.117188 -5.300781 L 42.117188 -55.800781 L 41.832031 -55.800781 C 38.320312 -52.289062 32.589844 -50.140625 22.992188 -49.855469 L 22.992188 -49.351562 C 26.574219 -49.496094 27.289062 -47.847656 27.289062 -43.265625 L 27.289062 -27.933594 C 26.503906 -32.089844 23.851562 -34.238281 16.832031 -34.238281 C 8.808594 -34.238281 2.003906 -29.082031 2.003906 -16.402344 C 2.003906 -3.867188 8.808594 1.144531 17.765625 1.144531 C 24.855469 1.144531 27.003906 -2.292969 27.503906 -6.734375 L 29.296875 0 L 46.558594 0 L 46.558594 -0.5 Z M 21.632812 -0.0703125 C 17.835938 -0.0703125 17.40625 -5.015625 17.40625 -16.546875 C 17.40625 -27.71875 18.480469 -32.804688 22.203125 -32.804688 C 25.644531 -32.804688 27.289062 -28.578125 27.289062 -24.355469 L 27.289062 -10.242188 C 27.289062 -2.792969 24.355469 -0.0703125 21.632812 -0.0703125 Z M 21.632812 -0.0703125 "/></g></g></g><g fill="#1ca4ac" fill-opacity="1"><g transform="translate(488.62301, 341.753597)"><g><path d="M 12.25 -36.101562 C 16.617188 -36.101562 20.199219 -39.683594 20.199219 -44.125 C 20.199219 -48.492188 16.617188 -52.074219 12.25 -52.074219 C 7.808594 -52.074219 4.226562 -48.492188 4.226562 -44.125 C 4.226562 -39.683594 7.808594 -36.101562 12.25 -36.101562 Z M 23.996094 -0.5 C 21.773438 -0.5 20.128906 -1.359375 20.128906 -5.300781 L 20.128906 -34.667969 L 19.839844 -34.667969 C 16.332031 -31.160156 10.601562 -29.007812 1.003906 -28.722656 L 1.003906 -28.222656 C 4.585938 -28.363281 5.300781 -26.71875 5.300781 -22.132812 L 5.300781 -5.300781 C 5.300781 -1.359375 3.652344 -0.5 1.433594 -0.5 L 0.859375 -0.5 L 0.859375 0 L 24.570312 0 L 24.570312 -0.5 Z M 23.996094 -0.5 "/></g></g></g><g fill="#1ca4ac" fill-opacity="1"><g transform="translate(513.830102, 341.753597)"><g><path d="M 32.878906 -21.058594 C 49.640625 -21.058594 54.007812 -26.933594 54.007812 -35.457031 C 54.007812 -43.980469 49.640625 -49.28125 32.878906 -49.28125 L 2.292969 -49.28125 L 2.292969 -48.78125 L 3.4375 -48.78125 C 8.378906 -48.78125 10.027344 -47.347656 10.027344 -40.613281 L 10.027344 -8.667969 C 10.027344 -1.933594 8.378906 -0.5 3.4375 -0.5 L 2.292969 -0.5 L 2.292969 0 L 36.316406 0 L 36.316406 -0.5 L 35.167969 -0.5 C 28.078125 -0.5 25.714844 -1.933594 25.714844 -8.667969 L 25.714844 -21.058594 Z M 37.964844 -35.457031 C 37.964844 -25.859375 35.242188 -21.558594 27.074219 -21.558594 L 25.714844 -21.558594 L 25.714844 -48.78125 L 26.429688 -48.78125 C 34.382812 -48.78125 37.964844 -44.695312 37.964844 -35.457031 Z M 37.964844 -35.457031 "/></g></g></g><g fill="#1ca4ac" fill-opacity="1"><g transform="translate(569.471871, 341.753597)"><g><path d="M 42.117188 -5.085938 C 41.757812 -3.078125 40.828125 -2.078125 39.46875 -2.078125 C 38.320312 -2.078125 37.890625 -3.078125 37.890625 -4.726562 L 37.890625 -19.625 C 37.890625 -31.730469 31.375 -34.238281 18.480469 -34.238281 C 8.523438 -34.238281 3.867188 -29.441406 3.867188 -24.425781 C 3.867188 -21.488281 5.945312 -19.195312 10.027344 -19.195312 C 14.183594 -19.195312 17.621094 -21.128906 17.621094 -25.5 C 17.621094 -31.160156 12.035156 -30.871094 12.035156 -32.234375 C 12.035156 -32.949219 13.539062 -33.738281 17.121094 -33.738281 C 21.773438 -33.738281 23.066406 -31.230469 23.066406 -24.066406 L 23.066406 -19.054688 L 17.40625 -18.195312 C 6.375 -16.546875 1.863281 -13.394531 1.863281 -7.304688 C 1.863281 -2.292969 4.941406 0.859375 11.246094 0.859375 C 18.050781 0.859375 21.917969 -1.574219 23.136719 -7.734375 C 23.710938 -1.433594 26.644531 0.859375 32.734375 0.859375 C 39.109375 0.859375 42.046875 -1.074219 42.761719 -4.941406 Z M 18.550781 -2.292969 C 16.476562 -2.292969 16.042969 -4.941406 16.042969 -9.097656 C 16.042969 -13.539062 16.832031 -17.476562 21.417969 -18.265625 L 23.066406 -18.550781 L 23.066406 -11.316406 C 23.066406 -6.519531 21.203125 -2.292969 18.550781 -2.292969 Z M 18.550781 -2.292969 "/></g></g></g><g fill="#1ca4ac" fill-opacity="1"><g transform="translate(612.581711, 341.753597)"><g><path d="M 30.011719 -12.175781 C 29.441406 -2.648438 25.644531 -0.574219 23.421875 -0.574219 C 21.203125 -0.574219 20.269531 -2.433594 20.269531 -6.804688 L 20.269531 -32.589844 L 29.007812 -32.589844 L 29.007812 -33.09375 L 20.269531 -33.09375 L 20.269531 -47.917969 L 19.839844 -47.917969 C 18.695312 -38.679688 12.535156 -36.316406 5.445312 -36.316406 L 5.445312 -33.09375 L 1.074219 -33.09375 L 1.074219 -32.589844 L 5.445312 -32.589844 L 5.445312 -11.820312 C 5.445312 -2.433594 9.3125 1.144531 18.265625 1.144531 C 27.792969 1.144531 29.796875 -3.367188 30.515625 -12.105469 Z M 30.011719 -12.175781 "/></g></g></g><g fill="#1ca4ac" fill-opacity="1"><g transform="translate(643.446063, 341.753597)"><g><path d="M 47.992188 -0.5 C 45.769531 -0.5 44.125 -1.359375 44.125 -5.300781 L 44.125 -21.773438 C 44.125 -30.300781 39.753906 -34.238281 32.589844 -34.238281 C 25.5 -34.238281 21.273438 -31.300781 20.128906 -25.285156 L 20.128906 -55.726562 L 19.839844 -55.726562 C 16.332031 -52.21875 10.601562 -50.070312 1.003906 -49.78125 L 1.003906 -49.28125 C 4.585938 -49.425781 5.300781 -47.777344 5.300781 -43.191406 L 5.300781 -5.300781 C 5.300781 -1.359375 3.652344 -0.5 1.433594 -0.5 L 0.859375 -0.5 L 0.859375 0 L 23.851562 0 L 23.851562 -0.5 L 23.28125 -0.5 C 21.203125 -0.5 20.128906 -1.359375 20.128906 -5.300781 L 20.128906 -21.558594 C 20.128906 -26.933594 22.921875 -31.875 26.144531 -31.875 C 28.578125 -31.875 29.296875 -30.011719 29.296875 -26.359375 L 29.296875 -5.300781 C 29.296875 -1.359375 28.222656 -0.5 26.144531 -0.5 L 25.570312 -0.5 L 25.570312 0 L 48.566406 0 L 48.566406 -0.5 Z M 47.992188 -0.5 "/></g></g></g><g fill="#004aad" fill-opacity="1"><g transform="translate(327.401616, 372.603457)"><g><path d="M 9.734375 0 L 9.734375 -15.949219 L 15.574219 -15.949219 L 15.574219 -19.195312 L 0.25 -19.195312 L 0.25 -15.949219 L 6.113281 -15.949219 L 6.113281 0 Z M 9.734375 0 "/></g></g></g><g fill="#004aad" fill-opacity="1"><g transform="translate(345.806748, 372.603457)"><g><path d="M 14.515625 0 L 14.515625 -3.246094 L 5.332031 -3.246094 L 5.332031 -8 L 13.558594 -8 L 13.558594 -11.21875 L 5.332031 -11.21875 L 5.332031 -15.949219 L 14.515625 -15.949219 L 14.515625 -19.195312 L 1.710938 -19.195312 L 1.710938 0 Z M 14.515625 0 "/></g></g></g><g fill="#004aad" fill-opacity="1"><g transform="translate(363.985619, 372.603457)"><g><path d="M 10.289062 0.351562 C 15.019531 0.351562 17.914062 -2.265625 18.441406 -6.238281 L 14.492188 -6.238281 C 14.113281 -3.976562 12.453125 -2.894531 10.1875 -2.894531 C 6.667969 -2.894531 4.753906 -5.609375 4.753906 -9.609375 C 4.753906 -13.585938 6.667969 -16.300781 10.1875 -16.300781 C 12.453125 -16.300781 14.136719 -15.21875 14.492188 -13.183594 L 18.441406 -13.183594 C 17.914062 -16.957031 15.019531 -19.546875 10.289062 -19.546875 C 3.925781 -19.546875 0.980469 -14.917969 0.980469 -9.609375 C 0.980469 -4.300781 3.925781 0.351562 10.289062 0.351562 Z M 10.289062 0.351562 "/></g></g></g><g fill="#004aad" fill-opacity="1"><g transform="translate(385.834852, 372.603457)"><g><path d="M 5.332031 0 L 5.332031 -8 L 13.558594 -8 L 13.558594 0 L 17.183594 0 L 17.183594 -19.195312 L 13.558594 -19.195312 L 13.558594 -11.246094 L 5.332031 -11.246094 L 5.332031 -19.195312 L 1.710938 -19.195312 L 1.710938 0 Z M 5.332031 0 "/></g></g></g><g fill="#004aad" fill-opacity="1"><g transform="translate(407.306994, 372.603457)"><g><path d="M 10.289062 0.351562 C 16.652344 0.351562 19.621094 -4.300781 19.621094 -9.609375 C 19.621094 -14.917969 16.652344 -19.546875 10.289062 -19.546875 C 3.949219 -19.546875 0.980469 -14.917969 0.980469 -9.609375 C 0.980469 -4.300781 3.949219 0.351562 10.289062 0.351562 Z M 10.289062 -2.894531 C 6.792969 -2.894531 4.753906 -5.609375 4.753906 -9.609375 C 4.753906 -13.585938 6.792969 -16.277344 10.289062 -16.277344 C 13.835938 -16.277344 15.847656 -13.585938 15.847656 -9.609375 C 15.847656 -5.609375 13.835938 -2.894531 10.289062 -2.894531 Z M 10.289062 -2.894531 "/></g></g></g><g fill="#004aad" fill-opacity="1"><g transform="translate(430.488624, 372.603457)"><g><path d="M 13.460938 0 L 13.460938 -3.246094 L 5.332031 -3.246094 L 5.332031 -19.195312 L 1.710938 -19.195312 L 1.710938 0 Z M 13.460938 0 "/></g></g></g><g fill="#004aad" fill-opacity="1"><g transform="translate(446.78204, 372.603457)"><g><path d="M 10.289062 0.351562 C 16.652344 0.351562 19.621094 -4.300781 19.621094 -9.609375 C 19.621094 -14.917969 16.652344 -19.546875 10.289062 -19.546875 C 3.949219 -19.546875 0.980469 -14.917969 0.980469 -9.609375 C 0.980469 -4.300781 3.949219 0.351562 10.289062 0.351562 Z M 10.289062 -2.894531 C 6.792969 -2.894531 4.753906 -5.609375 4.753906 -9.609375 C 4.753906 -13.585938 6.792969 -16.277344 10.289062 -16.277344 C 13.835938 -16.277344 15.847656 -13.585938 15.847656 -9.609375 C 15.847656 -5.609375 13.835938 -2.894531 10.289062 -2.894531 Z M 10.289062 -2.894531 "/></g></g></g><g fill="#004aad" fill-opacity="1"><g transform="translate(469.963675, 372.603457)"><g><path d="M 10.339844 0.351562 C 12.378906 0.351562 14.589844 -0.25 15.925781 -2.164062 L 15.925781 0 L 19.21875 0 L 19.21875 -10.441406 L 11.371094 -10.441406 L 11.371094 -7.445312 L 15.621094 -7.445312 C 15.546875 -4.425781 13.660156 -2.894531 10.640625 -2.894531 C 6.71875 -2.894531 4.753906 -5.761719 4.753906 -9.636719 C 4.753906 -13.382812 6.640625 -16.300781 10.316406 -16.300781 C 12.855469 -16.300781 14.441406 -15.171875 15.070312 -13.183594 L 19.042969 -13.183594 C 18.265625 -16.980469 15.296875 -19.546875 10.339844 -19.546875 C 3.898438 -19.546875 0.980469 -14.84375 0.980469 -9.609375 C 0.980469 -4.378906 3.898438 0.351562 10.339844 0.351562 Z M 10.339844 0.351562 "/></g></g></g><g fill="#004aad" fill-opacity="1"><g transform="translate(493.120165, 372.603457)"><g><path d="M 5.332031 0 L 5.332031 -19.195312 L 1.710938 -19.195312 L 1.710938 0 Z M 5.332031 0 "/></g></g></g><g fill="#004aad" fill-opacity="1"><g transform="translate(502.72646, 372.603457)"><g><path d="M 14.515625 0 L 14.515625 -3.246094 L 5.332031 -3.246094 L 5.332031 -8 L 13.558594 -8 L 13.558594 -11.21875 L 5.332031 -11.21875 L 5.332031 -15.949219 L 14.515625 -15.949219 L 14.515625 -19.195312 L 1.710938 -19.195312 L 1.710938 0 Z M 14.515625 0 "/></g></g></g><g fill="#004aad" fill-opacity="1"><g transform="translate(520.905335, 372.603457)"><g><path d="M 9.332031 0.351562 C 13.863281 0.351562 16.503906 -1.9375 16.503906 -5.558594 C 16.503906 -9.910156 12.703125 -10.765625 9.507812 -11.472656 C 7.167969 -12 5.105469 -12.453125 5.105469 -14.214844 C 5.105469 -15.671875 6.414062 -16.453125 8.226562 -16.453125 C 10.1875 -16.453125 11.824219 -15.523438 12.300781 -13.484375 L 16 -13.484375 C 15.394531 -17.636719 12 -19.546875 8.300781 -19.546875 C 4.425781 -19.546875 1.507812 -17.609375 1.507812 -13.910156 C 1.507812 -9.863281 5.082031 -9.082031 8.226562 -8.378906 C 10.667969 -7.847656 12.855469 -7.371094 12.855469 -5.382812 C 12.855469 -3.546875 11.347656 -2.742188 9.359375 -2.742188 C 7.347656 -2.742188 5.257812 -3.496094 4.628906 -6.238281 L 0.878906 -6.238281 C 1.359375 -1.28125 5.636719 0.351562 9.332031 0.351562 Z M 9.332031 0.351562 "/></g></g></g></svg>